<svg width="26" height="25" viewBox="0 0 26 25" fill="none" xmlns="http://www.w3.org/2000/svg">
<path d="M12.9219 23.2031C7.47266 23.2031 1.59375 19.7852 1.59375 12.2852C1.59375 4.78516 7.47266 1.36719 12.9219 1.36719C15.9492 1.36719 18.7422 2.36328 20.8125 4.17969C23.0586 6.17188 24.25 8.98438 24.25 12.2852C24.25 15.5859 23.0586 18.3789 20.8125 20.3711C18.7422 22.1875 15.9297 23.2031 12.9219 23.2031Z" fill="url(#paint0_radial_1065_6193)"/>
<path d="M22.2754 5.79492C23.3164 7.47461 23.8594 9.47461 23.8594 11.6992C23.8594 15 22.668 17.793 20.4219 19.7852C18.3516 21.6016 15.5391 22.6172 12.5312 22.6172C9.00391 22.6172 5.30469 21.1816 3.12109 18.1367C5.22266 21.5859 9.17578 23.2031 12.9219 23.2031C15.9297 23.2031 18.7422 22.1875 20.8125 20.3711C23.0586 18.3789 24.25 15.5859 24.25 12.2852C24.25 9.79688 23.5723 7.58594 22.2754 5.79492Z" fill="#EB8F00"/>
<path d="M17.8828 17.1875H8.11719C7.68555 17.1875 7.33594 16.8379 7.33594 16.4062C7.33594 15.9746 7.68555 15.625 8.11719 15.625H17.8828C18.3145 15.625 18.6641 15.9746 18.6641 16.4062C18.6641 16.8379 18.3145 17.1875 17.8828 17.1875Z" fill="#422B0D"/>
<path d="M9.22461 8.97266C8.40625 8.97266 7.66211 9.66406 7.66211 10.8125C7.66211 11.9609 8.40625 12.6504 9.22461 12.6504C10.043 12.6504 10.7871 11.959 10.7871 10.8125C10.7871 9.66602 10.043 8.97266 9.22461 8.97266Z" fill="#422B0D"/>
<path d="M9.14843 9.74028C8.87108 9.60747 8.5371 9.72466 8.40233 10.002C8.29882 10.2188 8.34569 10.4786 8.51952 10.6465C8.79687 10.7793 9.13085 10.6622 9.26562 10.3848C9.36913 10.168 9.32226 9.90825 9.14843 9.74028Z" fill="#896024"/>
<path d="M16.7109 8.97266C15.8926 8.97266 15.1484 9.66406 15.1484 10.8125C15.1484 11.9609 15.8926 12.6504 16.7109 12.6504C17.5293 12.6504 18.2734 11.959 18.2734 10.8125C18.2734 9.66602 17.5332 8.97266 16.7109 8.97266Z" fill="#422B0D"/>
<path d="M16.6387 9.74028C16.3613 9.60747 16.0273 9.72466 15.8926 10.002C15.7891 10.2188 15.8359 10.4786 16.0098 10.6465C16.2871 10.7793 16.6211 10.6622 16.7559 10.3848C16.8594 10.168 16.8125 9.90825 16.6387 9.74028Z" fill="#896024"/>
<defs>
<radialGradient id="paint0_radial_1065_6193" cx="0" cy="0" r="1" gradientUnits="userSpaceOnUse" gradientTransform="translate(12.9219 12.2851) scale(11.1249)">
<stop offset="0.5" stop-color="#FDE030"/>
<stop offset="0.92" stop-color="#F7C02B"/>
<stop offset="1" stop-color="#F4A223"/>
</radialGradient>
</defs>
</svg>
