<svg width="26" height="25" viewBox="0 0 26 25" fill="none" xmlns="http://www.w3.org/2000/svg">
<g clip-path="url(#clip0_923_1491)">
<path d="M12.6 0.78125C6.12732 0.78125 0.881226 6.02734 0.881226 12.5C0.881226 18.9727 6.12732 24.2188 12.6 24.2188C19.0726 24.2188 24.3187 18.9727 24.3187 12.5C24.3187 6.02734 19.0726 0.78125 12.6 0.78125ZM12.6 23.2422C6.67654 23.2422 1.85779 18.4234 1.85779 12.5C1.85779 6.57656 6.67654 1.75781 12.6 1.75781C18.5234 1.75781 23.3422 6.57656 23.3422 12.5C23.3422 18.4234 18.5234 23.2422 12.6 23.2422Z" fill="#D0CFD4"/>
<path d="M20.2171 9.1903C20.4917 9.13757 20.2925 8.30359 20.0667 8.34812C18.4378 8.6403 16.7632 8.19187 15.4992 7.12429C15.3261 6.97312 14.7355 7.59499 14.9468 7.7782C16.4062 9.01023 18.3386 9.5278 20.2171 9.1903Z" fill="#D0CFD4"/>
<path d="M4.98203 9.13167C6.8621 9.46878 8.79453 8.95081 10.2523 7.71956C10.4644 7.53635 9.87382 6.9137 9.70078 7.06565C8.43671 8.13284 6.7621 8.58167 5.13398 8.28948C4.90742 8.24495 4.70742 9.07893 4.98203 9.13167Z" fill="#D0CFD4"/>
<path d="M12.5999 14.8438C8.77455 14.8438 7.1472 15.784 6.47728 17.1875C6.14369 17.8852 6.56362 18.9751 6.6238 19.1236C6.62855 19.1354 6.63349 19.147 6.63839 19.1587C7.18161 20.4487 7.14761 20.5086 10.6297 19.8637C11.9301 19.6229 13.2696 19.6229 14.57 19.8637C18.0538 20.5089 18.0186 20.4486 18.5622 19.1569C18.5666 19.1464 18.5712 19.1357 18.5755 19.1251C18.6333 18.9825 19.0566 17.8876 18.7234 17.1875C18.0535 15.784 16.4261 14.8438 12.5999 14.8438ZM17.0386 16.7832L16.9624 17.0031C16.9273 17.1043 16.8105 17.1875 16.7031 17.1875H8.49681C8.38939 17.1875 8.2726 17.1043 8.23744 17.0027L8.16127 16.7828C8.12769 16.6858 8.16109 16.5539 8.23527 16.4813C8.24223 16.4745 8.24957 16.4685 8.25729 16.4625C8.37523 16.3719 9.44381 15.6246 12.5999 15.6246C15.6705 15.6246 16.7651 16.3319 16.9309 16.4537C16.9468 16.4655 16.9618 16.4776 16.975 16.4923C17.0418 16.5669 17.0706 16.6909 17.0386 16.7832Z" fill="#D0CFD4"/>
<path d="M7.07803 10.0001C7.07803 10.0001 9.62686 10.2657 11.3886 12.1212C11.5819 12.3185 11.578 12.6349 11.3788 12.8282C11.2987 12.9063 11.1972 12.9552 11.0878 12.9669C10.4062 13.0294 9.38662 13.379 7.96279 14.4591C7.96279 14.4591 7.19326 15.1915 6.58389 14.4591C6.10342 13.8731 6.97451 13.2091 6.97451 13.2091C6.97451 13.2091 7.9999 12.2794 9.21865 12.2149L6.95693 11.7032C6.72647 11.672 6.50967 11.5685 6.3417 11.4063C6.11904 11.2188 6.04092 10.9122 6.14639 10.6407C6.28897 10.2501 6.66201 9.99424 7.07803 10.0001Z" fill="#D0CFD4"/>
<path d="M18.705 10C18.705 10 16.166 10.2656 14.3964 12.1211C14.2031 12.3184 14.2089 12.6348 14.4062 12.8281C14.4863 12.9062 14.5917 12.9551 14.7031 12.9668C15.3847 13.0293 16.4023 13.3789 17.8281 14.459C17.8281 14.459 18.5956 15.1914 19.207 14.459C19.6874 13.873 18.8163 13.209 18.8163 13.209C18.8163 13.209 17.791 12.2793 16.5722 12.2148L18.8105 11.7031C19.0429 11.6719 19.2577 11.5684 19.4277 11.4062C19.6484 11.2187 19.7285 10.9121 19.623 10.6406C19.4824 10.2559 19.1152 10 18.705 10Z" fill="#D0CFD4"/>
</g>
<defs>
<clipPath id="clip0_923_1491">
<rect width="25" height="25" fill="white" transform="translate(0.0999756)"/>
</clipPath>
</defs>
</svg>
