<svg width="26" height="25" viewBox="0 0 26 25" fill="none" xmlns="http://www.w3.org/2000/svg">
<path d="M12.7218 23.2031C7.27258 23.2031 1.39368 19.7852 1.39368 12.2852C1.39368 4.78516 7.27258 1.36719 12.7218 1.36719C15.7491 1.36719 18.5421 2.36328 20.6124 4.17969C22.8585 6.17188 24.0499 8.98438 24.0499 12.2852C24.0499 15.5859 22.8585 18.3789 20.6124 20.3711C18.5421 22.1875 15.7296 23.2031 12.7218 23.2031Z" fill="url(#paint0_radial_1065_1500)"/>
<path d="M22.0753 5.79492C23.1163 7.47461 23.6593 9.47461 23.6593 11.6992C23.6593 15 22.4679 17.793 20.2218 19.7852C18.1515 21.6016 15.339 22.6172 12.3312 22.6172C8.80383 22.6172 5.10461 21.1816 2.92102 18.1367C5.02258 21.5859 8.97571 23.2031 12.7218 23.2031C15.7296 23.2031 18.5421 22.1875 20.6124 20.3711C22.8585 18.3789 24.0499 15.5859 24.0499 12.2852C24.0499 9.79688 23.3722 7.58594 22.0753 5.79492Z" fill="#EB8F00"/>
<path d="M8.89368 7.99609C8.07532 7.99609 7.33118 8.6875 7.33118 9.83594C7.33118 10.9844 8.07532 11.6738 8.89368 11.6738C9.71399 11.6738 10.4562 10.9824 10.4562 9.83594C10.4562 8.68945 9.7218 7.99609 8.89368 7.99609Z" fill="#422B0D"/>
<path d="M8.82531 8.76372C8.54796 8.63091 8.21398 8.74809 8.07921 9.02544C7.9757 9.24223 8.02257 9.502 8.1964 9.66997C8.47375 9.80278 8.80773 9.68559 8.9425 9.40825C9.04601 9.19145 8.99914 8.93169 8.82531 8.76372Z" fill="#896024"/>
<path d="M16.3937 7.99609C15.5753 7.99609 14.8312 8.6875 14.8312 9.83594C14.8312 10.9844 15.5753 11.6738 16.3937 11.6738C17.212 11.6738 17.9562 10.9824 17.9562 9.83594C17.9562 8.68945 17.212 7.99609 16.3937 7.99609Z" fill="#422B0D"/>
<path d="M16.3155 8.76372C16.0382 8.63091 15.7042 8.74809 15.5694 9.02544C15.4659 9.24223 15.5128 9.502 15.6866 9.66997C15.964 9.80278 16.298 9.68559 16.4327 9.40825C16.5362 9.19145 16.4894 8.93169 16.3155 8.76372Z" fill="#896024"/>
<path d="M12.8351 15.2715C14.6066 15.2559 16.3019 16.0019 17.4875 17.3184C17.5773 17.4219 17.5988 17.5684 17.5422 17.6934C17.4855 17.8203 17.3605 17.9023 17.2219 17.9043C17.1594 17.9043 17.0969 17.8867 17.0422 17.8555C16.1008 17.3144 14.5265 16.6426 12.839 16.6426H12.8117C11.1262 16.6426 9.54998 17.3144 8.61053 17.8555C8.55584 17.8867 8.49334 17.9043 8.43084 17.9043C8.29217 17.9023 8.16912 17.8203 8.11248 17.6934C8.05389 17.5684 8.07537 17.4219 8.16717 17.3184C9.35272 16.0019 11.0461 15.2559 12.8176 15.2715" fill="#422B0D"/>
<defs>
<radialGradient id="paint0_radial_1065_1500" cx="0" cy="0" r="1" gradientUnits="userSpaceOnUse" gradientTransform="translate(12.7218 12.2852) scale(11.1249)">
<stop offset="0.5" stop-color="#FDE030"/>
<stop offset="0.92" stop-color="#F7C02B"/>
<stop offset="1" stop-color="#F4A223"/>
</radialGradient>
</defs>
</svg>
