<svg width="26" height="25" viewBox="0 0 26 25" fill="none" xmlns="http://www.w3.org/2000/svg">
<path d="M12.5219 23.2031C7.07263 23.2031 1.19373 19.7852 1.19373 12.2852C1.19373 4.78516 7.07263 1.36719 12.5219 1.36719C15.5492 1.36719 18.3422 2.36328 20.4125 4.17969C22.6586 6.17188 23.85 8.98438 23.85 12.2852C23.85 15.5859 22.6586 18.3789 20.4125 20.3711C18.3422 22.1875 15.5297 23.2031 12.5219 23.2031Z" fill="url(#paint0_radial_1065_1159)"/>
<path d="M21.8754 5.79492C22.9164 7.47461 23.4594 9.47461 23.4594 11.6992C23.4594 15 22.2679 17.793 20.0219 19.7852C17.9515 21.6016 15.139 22.6172 12.1312 22.6172C8.60388 22.6172 4.90466 21.1816 2.72107 18.1367C4.82263 21.5859 8.77576 23.2031 12.5219 23.2031C15.5297 23.2031 18.3422 22.1875 20.4125 20.3711C22.6586 18.3789 23.85 15.5859 23.85 12.2852C23.85 9.79688 23.1722 7.58594 21.8754 5.79492Z" fill="#EB8F00"/>
<path d="M17.6273 15.4491C15.9965 14.9608 14.3012 14.7245 12.6 14.746C10.8754 14.7303 9.15858 14.9764 7.50818 15.4784C6.93592 16.41 6.63123 17.4803 6.62342 18.5741C6.61365 19.2616 7.16248 19.8261 7.84998 19.8358C8.04725 19.8378 8.24451 19.7948 8.42029 19.7069C9.73084 19.0936 11.1547 18.7616 12.6 18.7303C14.0472 18.7577 15.4711 19.0917 16.7797 19.7069C17.3949 20.0116 18.141 19.7616 18.4476 19.1444C18.5355 18.9667 18.5805 18.7714 18.5765 18.5741C18.5648 17.4628 18.2347 16.3788 17.6273 15.4491Z" fill="#422B0D"/>
<path d="M17.6273 15.4492C16.4476 13.5938 14.3754 13.125 12.6 13.125C10.6703 13.125 8.63513 13.6074 7.50818 15.4688C9.15857 14.9707 10.8754 14.7266 12.6 14.7461C14.3011 14.7246 15.9965 14.9609 17.6273 15.4492Z" fill="white"/>
<path d="M6.68787 6.03694C6.25818 6.11506 6.23865 6.74006 6.7074 6.75959C7.74255 6.77326 8.74255 6.3885 9.50037 5.68537C9.78943 5.43537 10.0336 5.1385 10.223 4.80647C10.3363 4.64436 10.2972 4.4217 10.1351 4.30842C9.97302 4.19514 9.75037 4.2342 9.63709 4.39631L9.61755 4.41584C8.85193 5.27131 7.81873 5.84358 6.68787 6.03694Z" fill="#422B0D"/>
<path d="M15.4204 4.39631C15.3071 4.2342 15.0844 4.19514 14.9223 4.30842C14.7602 4.4217 14.7211 4.64436 14.8344 4.80647C15.0239 5.1385 15.268 5.43537 15.5571 5.68537C16.3188 6.38264 17.3168 6.76741 18.35 6.75959C18.8383 6.74006 18.7993 6.11506 18.3696 6.03694C17.225 5.84944 16.184 5.26936 15.4204 4.39631Z" fill="#422B0D"/>
<path d="M6.83242 8.05039C6.83242 8.05039 9.38125 8.31602 11.143 10.1715C11.3363 10.3688 11.3324 10.6852 11.1332 10.8785C11.0531 10.9566 10.9516 11.0055 10.8422 11.0172C10.1605 11.0797 9.14102 11.4293 7.71719 12.5094C7.71719 12.5094 6.94766 13.2418 6.33828 12.5094C5.85781 11.9234 6.72891 11.2594 6.72891 11.2594C6.72891 11.2594 7.7543 10.3297 8.97305 10.2652L6.71133 9.75352C6.48086 9.72227 6.26406 9.61875 6.09609 9.45664C5.87344 9.26914 5.79531 8.9625 5.90078 8.69102C6.04336 8.30039 6.41641 8.04453 6.83242 8.05039Z" fill="#422B0D"/>
<path d="M18.4594 8.05078C18.4594 8.05078 15.9203 8.31641 14.1508 10.1719C13.9575 10.3691 13.9633 10.6855 14.1606 10.8789C14.2407 10.957 14.3461 11.0059 14.4575 11.0176C15.1391 11.0801 16.1567 11.4297 17.5825 12.5098C17.5825 12.5098 18.35 13.2422 18.9614 12.5098C19.4418 11.9238 18.5707 11.2598 18.5707 11.2598C18.5707 11.2598 17.5453 10.3301 16.3266 10.2656L18.5649 9.75391C18.7973 9.72266 19.0121 9.61914 19.1821 9.45703C19.4028 9.26953 19.4828 8.96289 19.3774 8.69141C19.2368 8.30664 18.8696 8.05078 18.4594 8.05078Z" fill="#422B0D"/>
<path d="M12.5883 12.832C13.2758 12.8379 13.9613 12.9238 14.6312 13.0859C15.3109 13.248 15.9535 13.5352 16.5277 13.9336C17.0941 14.3457 17.5609 14.8809 17.8949 15.4961C18.2289 16.0957 18.4652 16.7461 18.5902 17.4199C18.6527 17.7559 18.6859 18.0957 18.6859 18.4375C18.6937 18.6172 18.6742 18.7949 18.6273 18.9688C18.5746 19.1445 18.4867 19.3066 18.3715 19.4473C18.1371 19.7246 17.7992 19.8965 17.4359 19.9219C17.2582 19.9316 17.0785 19.9082 16.9086 19.8535C16.7386 19.791 16.598 19.7148 16.4437 19.6582C15.2328 19.0996 13.9222 18.7832 12.5883 18.7305C13.9281 18.7324 15.2562 18.998 16.4945 19.5117C16.6508 19.5723 16.807 19.6484 16.9515 19.6953C17.1019 19.7363 17.2582 19.75 17.4125 19.7363C17.7211 19.7051 18.0023 19.5508 18.1937 19.3066C18.2855 19.1875 18.3519 19.0488 18.389 18.9023C18.4242 18.752 18.4359 18.5957 18.4222 18.4414C18.4086 18.1133 18.3656 17.7852 18.2953 17.4648C18.1527 16.8301 17.9086 16.2227 17.5687 15.668C17.2426 15.1172 16.7972 14.6465 16.266 14.2891C15.7289 13.9453 15.1332 13.7031 14.5082 13.5781C13.8734 13.4512 13.2269 13.3945 12.5804 13.4121L12.5883 12.832Z" fill="#EB8F00"/>
<path d="M12.6371 13.418C11.9906 13.4004 11.3441 13.457 10.7113 13.584C10.0863 13.709 9.49057 13.9512 8.95346 14.2949C8.42221 14.6523 7.97689 15.123 7.65072 15.6738C7.31283 16.2285 7.06674 16.8359 6.92416 17.4707C6.85385 17.791 6.81088 18.1191 6.79721 18.4473C6.78353 18.6016 6.79525 18.7578 6.83041 18.9082C6.86947 19.0547 6.93588 19.1914 7.02572 19.3125C7.21713 19.5566 7.49838 19.7109 7.80697 19.7422C7.96127 19.7559 8.11752 19.7422 8.26791 19.7012C8.41439 19.6543 8.57064 19.5781 8.72494 19.5176C9.96322 19.0039 11.2913 18.7383 12.6312 18.7363C11.2992 18.7852 9.98861 19.0957 8.77572 19.6504C8.62338 19.7168 8.4808 19.793 8.31088 19.8457C8.14096 19.9004 7.96127 19.9238 7.78353 19.9141C7.4183 19.8887 7.08041 19.7168 6.84603 19.4375C6.72885 19.2969 6.64096 19.1348 6.58822 18.959C6.54135 18.7852 6.52182 18.6074 6.52963 18.4277C6.53158 18.0859 6.56478 17.7461 6.62533 17.4102C6.75424 16.7363 6.99057 16.0879 7.3265 15.4902C7.66049 14.875 8.12728 14.3398 8.69369 13.9277C9.26986 13.5313 9.91439 13.2461 10.5941 13.0859C11.264 12.9238 11.9496 12.8379 12.6371 12.832V13.418Z" fill="#EB8F00"/>
<defs>
<radialGradient id="paint0_radial_1065_1159" cx="0" cy="0" r="1" gradientUnits="userSpaceOnUse" gradientTransform="translate(12.5219 12.2852) scale(11.1249)">
<stop offset="0.5" stop-color="#FDE030"/>
<stop offset="0.92" stop-color="#F7C02B"/>
<stop offset="1" stop-color="#F4A223"/>
</radialGradient>
</defs>
</svg>
