<svg width="26" height="25" viewBox="0 0 26 25" fill="none" xmlns="http://www.w3.org/2000/svg">
<path d="M13.1218 23.2031C7.67261 23.2031 1.7937 19.7852 1.7937 12.2852C1.7937 4.78516 7.67261 1.36719 13.1218 1.36719C16.1492 1.36719 18.9421 2.36328 21.0125 4.17969C23.2585 6.17188 24.45 8.98438 24.45 12.2852C24.45 15.5859 23.2585 18.3789 21.0125 20.3711C18.9421 22.1875 16.1296 23.2031 13.1218 23.2031Z" fill="url(#paint0_radial_1065_6272)"/>
<path d="M9.2937 7.99609C8.47534 7.99609 7.7312 8.6875 7.7312 9.83594C7.7312 10.9844 8.47534 11.6738 9.2937 11.6738C10.114 11.6738 10.8562 10.9824 10.8562 9.83594C10.8562 8.68945 10.1218 7.99609 9.2937 7.99609Z" fill="#422B0D"/>
<path d="M9.22533 8.76372C8.94799 8.63091 8.614 8.74809 8.47924 9.02544C8.37572 9.24223 8.4226 9.502 8.59643 9.66997C8.87377 9.80278 9.20775 9.68559 9.34252 9.40825C9.44604 9.19145 9.39916 8.93169 9.22533 8.76372Z" fill="#896024"/>
<path d="M16.7937 7.99609C15.9753 7.99609 15.2312 8.6875 15.2312 9.83594C15.2312 10.9844 15.9753 11.6738 16.7937 11.6738C17.6121 11.6738 18.3562 10.9824 18.3562 9.83594C18.3562 8.68945 17.6121 7.99609 16.7937 7.99609Z" fill="#422B0D"/>
<path d="M16.7156 8.76372C16.4382 8.63091 16.1042 8.74809 15.9695 9.02544C15.866 9.24223 15.9128 9.502 16.0867 9.66997C16.364 9.80278 16.698 9.68559 16.8328 9.40825C16.9363 9.19145 16.8894 8.93169 16.7156 8.76372Z" fill="#896024"/>
<path d="M13.0047 17.8926C11.2332 17.9063 9.54178 17.1621 8.35623 15.8457C8.26639 15.7422 8.2449 15.5957 8.30154 15.4707C8.35818 15.3438 8.48318 15.2617 8.62186 15.2598C8.68436 15.2598 8.74686 15.2773 8.80154 15.3086C9.74295 15.8496 11.3172 16.5215 13.0047 16.5215H13.032C14.7176 16.5215 16.2937 15.8496 17.2332 15.3086C17.2879 15.2773 17.3504 15.2598 17.4129 15.2598C17.5515 15.2617 17.6765 15.3438 17.7332 15.4707C17.7918 15.5957 17.7703 15.7422 17.6785 15.8457C16.493 17.1621 14.7976 17.9082 13.0262 17.8926" fill="#422B0D"/>
<path d="M22.4753 5.79492C23.5164 7.47461 24.0593 9.47461 24.0593 11.6992C24.0593 15 22.8679 17.793 20.6218 19.7852C18.5515 21.6016 15.739 22.6172 12.7312 22.6172C9.20386 22.6172 5.50464 21.1816 3.32104 18.1367C5.42261 21.5859 9.37573 23.2031 13.1218 23.2031C16.1296 23.2031 18.9421 22.1875 21.0125 20.3711C23.2585 18.3789 24.45 15.5859 24.45 12.2852C24.45 9.79688 23.7722 7.58594 22.4753 5.79492Z" fill="#EB8F00"/>
<defs>
<radialGradient id="paint0_radial_1065_6272" cx="0" cy="0" r="1" gradientUnits="userSpaceOnUse" gradientTransform="translate(13.1218 12.2852) scale(11.1249)">
<stop offset="0.5" stop-color="#FDE030"/>
<stop offset="0.92" stop-color="#F7C02B"/>
<stop offset="1" stop-color="#F4A223"/>
</radialGradient>
</defs>
</svg>
