<svg width="26" height="25" viewBox="0 0 26 25" fill="none" xmlns="http://www.w3.org/2000/svg">
<path d="M13.2477 23.2031C7.79846 23.2031 1.91956 19.7852 1.91956 12.2852C1.91956 4.78516 7.79846 1.36719 13.2477 1.36719C16.275 1.36719 19.068 2.36328 21.1383 4.17969C23.3844 6.17188 24.5758 8.98438 24.5758 12.2852C24.5758 15.5859 23.3844 18.3789 21.1383 20.3711C19.0641 22.1875 16.2555 23.2031 13.2477 23.2031Z" fill="url(#paint0_radial_1065_6065)"/>
<path d="M9.49377 7.99609C8.67542 7.99609 7.93127 8.6875 7.93127 9.83594C7.93127 10.9844 8.67542 11.6738 9.49377 11.6738C10.3141 11.6738 11.0563 10.9824 11.0563 9.83594C11.0563 8.68945 10.3219 7.99609 9.49377 7.99609Z" fill="#422B0D"/>
<path d="M9.42541 8.76372C9.14806 8.63091 8.81408 8.74809 8.67931 9.02544C8.5758 9.24223 8.62267 9.502 8.7965 9.66997C9.07384 9.80278 9.40783 9.68559 9.54259 9.40825C9.64611 9.19145 9.59923 8.93169 9.42541 8.76372Z" fill="#896024"/>
<path d="M16.9938 7.99609C16.1754 7.99609 15.4313 8.6875 15.4313 9.83594C15.4313 10.9844 16.1754 11.6738 16.9938 11.6738C17.8121 11.6738 18.5563 10.9824 18.5563 9.83594C18.5563 8.68945 17.8121 7.99609 16.9938 7.99609Z" fill="#422B0D"/>
<path d="M16.9156 8.76372C16.6383 8.63091 16.3043 8.74809 16.1695 9.02544C16.066 9.24223 16.1129 9.502 16.2867 9.66997C16.5641 9.80278 16.8981 9.68559 17.0328 9.40825C17.1363 9.19145 17.0895 8.93169 16.9156 8.76372Z" fill="#896024"/>
<path d="M22.6754 5.79492C23.7164 7.47461 24.2594 9.47461 24.2594 11.6992C24.2594 15 23.068 17.793 20.8219 19.7852C18.7516 21.6016 15.9391 22.6172 12.9313 22.6172C9.40393 22.6172 5.70471 21.1816 3.52112 18.1367C5.62268 21.5859 9.57581 23.2031 13.3219 23.2031C16.3297 23.2031 19.1422 22.1875 21.2125 20.3711C23.4586 18.3789 24.65 15.5859 24.65 12.2852C24.65 9.79688 23.9723 7.58594 22.6754 5.79492Z" fill="#EB8F00"/>
<path d="M20.8356 13.9882C20.5621 13.4941 19.9684 13.2773 19.441 13.4765C17.4371 14.0605 15.359 14.3515 13.2711 14.3417C11.1832 14.3515 9.10508 14.0605 7.10118 13.4765C6.57579 13.2773 5.98204 13.4921 5.7086 13.9843C5.44298 14.4745 5.63438 15.0429 5.85899 15.5331C7.1129 18.287 9.87657 19.9355 13.2555 19.9453H13.2867C16.6656 19.9453 19.4293 18.287 20.6852 15.5331C20.9078 15.039 21.1012 14.4785 20.8356 13.9882Z" fill="#422B0D"/>
<path d="M16.3981 19.1679C16.3258 19.1015 16.2516 19.0409 16.1774 18.9725C15.3805 18.2714 14.3492 17.8944 13.2867 17.9159C12.193 17.8983 11.1285 18.2616 10.275 18.9452C10.2008 19.0058 10.1227 19.0643 10.0504 19.1405C9.97815 19.2167 9.93909 19.2714 9.89221 19.3358C10.9664 19.7558 12.111 19.9706 13.2653 19.9647H13.2965C14.402 19.9647 15.4977 19.7675 16.5328 19.3788C16.4938 19.3046 16.4489 19.2343 16.3981 19.1679Z" fill="#ED7770"/>
<path d="M19.441 13.4766C17.4371 14.0606 15.359 14.3516 13.2711 14.3418C11.1832 14.3516 9.1051 14.0606 7.1012 13.4766C6.57581 13.2774 5.98206 13.4922 5.70862 13.9844C5.66956 14.0586 5.63831 14.1368 5.61877 14.2168C5.68323 14.25 5.75745 14.2832 5.84534 14.3184C8.1969 15.4961 10.7965 16.0938 13.4254 16.0625C15.9469 16.0918 18.4391 15.543 20.7164 14.461C20.8082 14.4219 20.8844 14.3848 20.9528 14.3496C20.9371 14.2227 20.8961 14.0977 20.8356 13.9844C20.5621 13.4922 19.9684 13.2754 19.441 13.4766Z" fill="white"/>
<path d="M20.8434 13.9902C20.566 13.496 19.9703 13.2773 19.4391 13.4765C17.4352 14.0605 15.357 14.3515 13.2711 14.3417C11.1832 14.3515 9.10508 14.0605 7.10118 13.4765C6.57579 13.2773 5.98204 13.4921 5.7086 13.9843C5.44298 14.4745 5.63438 15.0429 5.85899 15.5331C5.9586 15.7538 6.06993 15.9706 6.19298 16.1796C6.19298 16.1796 5.78282 14.6601 6.13829 14.2187C6.25938 14.0312 6.46251 13.914 6.68516 13.9023C6.77696 13.9023 6.8668 13.9179 6.95469 13.9453C8.99376 14.5449 11.109 14.8476 13.2359 14.8437H13.3043C15.4313 14.8476 17.5465 14.5449 19.5856 13.9453C19.6734 13.9179 19.7633 13.9023 19.8551 13.9023C20.0777 13.914 20.2828 14.0312 20.4039 14.2187C20.7652 14.6601 20.3492 16.1855 20.3492 16.1855C20.4703 15.9765 20.5914 15.7617 20.693 15.539C20.9156 15.0488 21.109 14.4824 20.8434 13.9902Z" fill="#EB8F00"/>
<defs>
<radialGradient id="paint0_radial_1065_6065" cx="0" cy="0" r="1" gradientUnits="userSpaceOnUse" gradientTransform="translate(13.2477 12.2852) scale(11.1249)">
<stop offset="0.5" stop-color="#FDE030"/>
<stop offset="0.92" stop-color="#F7C02B"/>
<stop offset="1" stop-color="#F4A223"/>
</radialGradient>
</defs>
</svg>
