<svg width="26" height="25" viewBox="0 0 26 25" fill="none" xmlns="http://www.w3.org/2000/svg">
<path d="M13 0.78125C6.52812 0.78125 1.28125 6.02812 1.28125 12.5C1.28125 18.9719 6.52812 24.2188 13 24.2188C19.4711 24.2188 24.7188 18.9719 24.7188 12.5C24.7188 6.02812 19.4711 0.78125 13 0.78125ZM13 23.2422C7.07656 23.2422 2.25781 18.4234 2.25781 12.5C2.25781 6.57656 7.07656 1.75781 13 1.75781C18.923 1.75781 23.7422 6.57656 23.7422 12.5C23.7422 18.4234 18.923 23.2422 13 23.2422Z" fill="#D0CFD4"/>
<path d="M8.50781 12.7312C9.58649 12.7312 10.4609 11.8568 10.4609 10.7781C10.4609 9.6994 9.58649 8.82495 8.50781 8.82495C7.42913 8.82495 6.55469 9.6994 6.55469 10.7781C6.55469 11.8568 7.42913 12.7312 8.50781 12.7312Z" fill="#D0CFD4"/>
<path d="M17.4915 12.7312C18.5701 12.7312 19.4446 11.8568 19.4446 10.7781C19.4446 9.6994 18.5701 8.82495 17.4915 8.82495C16.4128 8.82495 15.5383 9.6994 15.5383 10.7781C15.5383 11.8568 16.4128 12.7312 17.4915 12.7312Z" fill="#D0CFD4"/>
<path d="M17.7245 17H8.2755C7.2415 17 7.2415 18.6 8.2755 18.6H17.7245C18.7585 18.6 18.7585 17 17.7245 17Z" fill="#D0CFD4"/>
</svg>
