<svg width="16" height="16" viewBox="0 0 16 16" fill="none" xmlns="http://www.w3.org/2000/svg">
<g clip-path="url(#clip0_1190_2817)">
<path d="M14.695 7.7563L7.97544 14.5323C7.71472 14.7979 7.40366 15.009 7.06045 15.153C6.71724 15.2971 6.34875 15.3713 5.97653 15.3713C5.6043 15.3713 5.23582 15.2971 4.8926 15.153C4.54939 15.009 4.23832 14.7979 3.97762 14.5323L1.9674 12.4882C1.44116 11.9537 1.14621 11.2337 1.14621 10.4836C1.14621 9.73357 1.44116 9.01357 1.9674 8.47908L9.12736 1.29653C9.33733 1.08482 9.58715 0.916794 9.86238 0.802124C10.1376 0.687456 10.4328 0.628418 10.731 0.628418C11.0292 0.628418 11.3244 0.687456 11.5997 0.802124C11.8749 0.916794 12.1247 1.08482 12.3346 1.29653L13.1365 2.09836C13.3482 2.30832 13.5162 2.55814 13.6309 2.83337C13.7456 3.10861 13.8046 3.40383 13.8046 3.702C13.8046 4.00017 13.7456 4.2954 13.6309 4.57063C13.5162 4.84588 13.3482 5.09568 13.1365 5.30565L6.78965 11.675C6.68466 11.781 6.55975 11.865 6.42213 11.9222C6.28452 11.9796 6.13691 12.0091 5.98782 12.0091C5.83874 12.0091 5.69112 11.9796 5.5535 11.9222C5.41589 11.865 5.29098 11.781 5.18599 11.675L4.79072 11.2685C4.68487 11.1635 4.60086 11.0386 4.54352 10.901C4.4862 10.7634 4.45668 10.6158 4.45668 10.4667C4.45668 10.3176 4.4862 10.17 4.54352 10.0324C4.60086 9.89477 4.68487 9.76985 4.79072 9.66487L9.04831 5.44117" stroke="#888693" stroke-linecap="round" stroke-linejoin="round"/>
</g>
<defs>
<clipPath id="clip0_1190_2817">
<rect width="16" height="16" fill="white"/>
</clipPath>
</defs>
</svg>
