<svg width="20" height="20" viewBox="0 0 20 20" fill="none" xmlns="http://www.w3.org/2000/svg">
<path fill-rule="evenodd" clip-rule="evenodd" d="M14.3345 0H5.66549C2.26791 0 0.000488281 2.4326 0.000488281 5.916V14.084C0.000488281 17.5707 2.26186 20 5.66549 20H14.3335C17.7381 20 20.0005 17.5707 20.0005 14.084V5.916C20.0005 2.4295 17.7383 0 14.3345 0ZM5.66549 1.5H14.3345C16.885 1.5 18.5005 3.23496 18.5005 5.916V14.084C18.5005 16.7652 16.8849 18.5 14.3335 18.5H5.66549C3.11525 18.5 1.50049 16.7653 1.50049 14.084V5.916C1.50049 3.23837 3.12083 1.5 5.66549 1.5ZM7.07071 7.06221C7.33701 6.79598 7.75367 6.77181 8.04726 6.9897L8.13137 7.06233L9.99909 8.93043L11.8652 7.06437C12.1581 6.77148 12.6329 6.77148 12.9258 7.06437C13.1921 7.33064 13.2163 7.7473 12.9984 8.04091L12.9258 8.12503L11.0596 9.99121L12.9274 11.8593C13.2202 12.1522 13.2202 12.6271 12.9273 12.92C12.661 13.1862 12.2443 13.2104 11.9507 12.9925L11.8666 12.9199L9.99898 11.0519L8.13382 12.917C7.84093 13.2099 7.36605 13.2099 7.07316 12.917C6.80689 12.6508 6.78269 12.2341 7.00054 11.9405L7.07316 11.8564L8.93843 9.99109L7.0706 8.12287C6.77774 7.82995 6.77779 7.35508 7.07071 7.06221Z" fill="#29253C"/>
</svg>
