<svg width="20" height="20" viewBox="0 0 20 20" fill="none" xmlns="http://www.w3.org/2000/svg">
<path fill-rule="evenodd" clip-rule="evenodd" d="M13.2826 2.82516C13.0436 2.12173 12.4229 1.6665 11.7199 1.6665H8.27993L8.14916 1.67178C7.45767 1.72775 6.86759 2.22398 6.68587 2.92094L6.47953 3.97328L6.45535 4.06591C6.35654 4.3659 6.0803 4.57411 5.76476 4.57411L5.76476 4.57411H3.10949L3.02679 4.57982C2.72929 4.6212 2.5 4.88271 2.5 5.19913C2.5 5.54432 2.77288 5.82416 3.10949 5.82416L5.76476 5.82416H14.2351L16.8905 5.82416L16.9732 5.81845C17.2707 5.77706 17.5 5.51556 17.5 5.19913C17.5 4.85394 17.2271 4.57411 16.8905 4.57411H14.2358C14.2356 4.57411 14.2353 4.57411 14.2351 4.57411L14.1417 4.56798C13.8354 4.5275 13.5822 4.29044 13.5203 3.97303L13.3228 2.95991L13.2826 2.82516ZM12.4286 4.57411C12.4009 4.50355 12.3769 4.43085 12.3569 4.35624L12.325 4.21824L12.1364 3.24384C12.0923 3.07476 11.9561 2.95099 11.7918 2.92269L11.7199 2.91655H8.27993C8.10892 2.91655 7.95691 3.01919 7.89377 3.14819L7.87235 3.20487L7.67483 4.21849C7.65073 4.34191 7.61583 4.46076 7.57126 4.57411H12.4286ZM15.8153 7.26665C16.1229 7.29208 16.3587 7.54747 16.375 7.85488L16.3671 8.02629L16.105 11.2357L15.8301 14.3676C15.7719 14.9929 15.7198 15.5202 15.6749 15.9354C15.5187 17.3821 14.5796 18.2768 13.1638 18.3033C10.9578 18.344 8.83731 18.3436 6.77811 18.2991C5.40331 18.2702 4.47805 17.3659 4.32462 15.9412L4.21858 14.8916L4.03328 12.8557L3.84347 10.6216L3.62643 7.93973C3.59946 7.59565 3.84959 7.2943 4.18512 7.26664C4.49269 7.24128 4.76525 7.4547 4.82932 7.75548L4.85426 8.00128L5.05805 10.5154L5.28057 13.1214C5.38038 14.2495 5.46695 15.1625 5.53622 15.8038C5.62365 16.6157 6.05115 17.0335 6.80343 17.0493C8.84654 17.0935 10.9512 17.0939 13.1417 17.0534C13.9398 17.0385 14.374 16.6248 14.4633 15.7976L14.5689 14.7536C14.5998 14.4319 14.6329 14.0767 14.6678 13.6909L14.8905 11.128L15.1588 7.83942C15.1836 7.52402 15.4327 7.28226 15.7325 7.26552L15.8153 7.26665Z" fill="#888693"/>
</svg>
