<svg width="24" height="24" viewBox="0 0 24 24" fill="none" xmlns="http://www.w3.org/2000/svg">
<g clip-path="url(#clip0_119_6238)">
<path fill-rule="evenodd" clip-rule="evenodd" d="M2.44143 0.461895C2.68572 0.169195 3.0473 0 3.42854 0H12C12.3812 0 12.7428 0.169195 12.9871 0.461895C13.2314 0.754598 13.3331 1.14062 13.265 1.51571L13.2241 1.74027C14.4705 1.91837 15.4286 2.99014 15.4286 4.28571V5.57143H12.4286C9.58826 5.57143 7.28571 7.87397 7.28571 10.7143V18.8571H2.57143C1.15127 18.8571 0 17.7058 0 16.2857V4.28571C0 2.99016 0.958097 1.91839 2.2044 1.74027L2.16357 1.51571C2.09537 1.14062 2.19715 0.754598 2.44143 0.461895ZM4.9691 2.57143L5.16677 3.65856C5.27793 4.26991 5.81037 4.71429 6.43174 4.71429H8.99678C9.61815 4.71429 10.1506 4.26991 10.2617 3.65856L10.4594 2.57143H4.9691Z" fill="#29D697"/>
<path opacity="0.4" fill-rule="evenodd" clip-rule="evenodd" d="M12.4286 7.71436C10.7717 7.71436 9.42859 9.0575 9.42859 10.7144V21.0001C9.42859 22.6569 10.7717 24.0001 12.4286 24.0001H21C22.6569 24.0001 24 22.6569 24 21.0001V10.7144C24 9.0575 22.6569 7.71436 21 7.71436H12.4286Z" fill="#29D697"/>
<path d="M14.5714 16.9285C13.9797 16.9285 13.5 17.4081 13.5 17.9999C13.5 18.5917 13.9797 19.0713 14.5714 19.0713H18.8571C19.4489 19.0713 19.9286 18.5917 19.9286 17.9999C19.9286 17.4081 19.4489 16.9285 18.8571 16.9285H14.5714Z" fill="#29D697"/>
<path d="M13.5 13.7143C13.5 13.1225 13.9797 12.6428 14.5714 12.6428H18.8571C19.4489 12.6428 19.9286 13.1225 19.9286 13.7143C19.9286 14.306 19.4489 14.7857 18.8571 14.7857H14.5714C13.9797 14.7857 13.5 14.306 13.5 13.7143Z" fill="#29D697"/>
</g>
<defs>
<clipPath id="clip0_119_6238">
<rect width="24" height="24" fill="white"/>
</clipPath>
</defs>
</svg>
