<svg width="30" height="30" viewBox="0 0 30 30" fill="none" xmlns="http://www.w3.org/2000/svg">
<path opacity="0.4" d="M24.9908 23.6917H17.8729C17.1785 23.6917 16.6136 24.2654 16.6136 24.9709C16.6136 25.6777 17.1785 26.2501 17.8729 26.2501H24.9908C25.6852 26.2501 26.2501 25.6777 26.2501 24.9709C26.2501 24.2654 25.6852 23.6917 24.9908 23.6917Z" fill="#888693"/>
<path d="M12.8863 8.62975L19.6311 14.0799C19.7938 14.2102 19.8216 14.4494 19.6946 14.616L11.6984 25.0352C11.1958 25.6788 10.455 26.043 9.66136 26.0564L5.2962 26.1102C5.06339 26.1128 4.85968 25.9516 4.80677 25.7205L3.81469 21.4072C3.64273 20.6144 3.81469 19.7947 4.31735 19.1631L12.3532 8.69425C12.4828 8.52629 12.7223 8.49673 12.8863 8.62975Z" fill="#888693"/>
<path opacity="0.4" d="M22.6507 10.8318L21.3504 12.455C21.2195 12.6203 20.984 12.6472 20.8213 12.5155C19.2406 11.2363 15.1929 7.95356 14.0699 7.04386C13.9059 6.90949 13.8834 6.67031 14.0157 6.50369L15.2697 4.94632C16.4072 3.48167 18.3914 3.3473 19.992 4.62383L21.8306 6.08848C22.5846 6.67972 23.0872 7.45907 23.2592 8.27874C23.4576 9.18037 23.246 10.0659 22.6507 10.8318Z" fill="#888693"/>
</svg>
