<svg width="26" height="25" viewBox="0 0 26 25" fill="none" xmlns="http://www.w3.org/2000/svg">
<g clip-path="url(#clip0_923_1521)">
<path d="M13.4 0.78125C6.92737 0.78125 1.68127 6.02734 1.68127 12.5C1.68127 18.9727 6.92737 24.2188 13.4 24.2188C19.8727 24.2188 25.1188 18.9727 25.1188 12.5C25.1188 6.02734 19.8727 0.78125 13.4 0.78125ZM13.4 23.2422C7.47659 23.2422 2.65784 18.4234 2.65784 12.5C2.65784 6.57656 7.47659 1.75781 13.4 1.75781C19.3235 1.75781 24.1422 6.57656 24.1422 12.5C24.1422 18.4234 19.3235 23.2422 13.4 23.2422Z" fill="#D0CFD4"/>
<path d="M19.5653 13.2836C13.3997 14.5 13.4 14.5 7.23405 13.2836C6.92741 13.2836 6.64616 13.2484 6.48717 13.4515C4.96022 15.3992 6.75671 21.0937 13.3997 21.0937C20.043 21.0937 21.8395 15.3992 20.3122 13.4515C20.1536 13.2484 19.8719 13.2836 19.5653 13.2836ZM13.4001 20.3836C12.2622 20.3836 11.2583 20.1644 10.3872 19.791C11.2278 19.3879 12.2274 19.1414 13.4001 19.1414C14.5727 19.1414 15.5731 19.3879 16.413 19.791C15.5423 20.1644 14.5383 20.3836 13.4001 20.3836ZM19.2618 15.625C14.4 17.5 12.4 17.5 7.53835 15.625C6.48718 15.2216 6.75671 14.0625 7.55905 14.0625C7.55905 14.0625 9.39968 15.625 13.3997 15.625C17.3997 15.625 19.2411 14.0625 19.2411 14.0625C20.043 14.0625 20.0446 15.3231 19.2618 15.625Z" fill="#D0CFD4"/>
<path d="M8.90784 10.9375C9.98652 10.9375 10.861 10.0631 10.861 8.98438C10.861 7.90569 9.98652 7.03125 8.90784 7.03125C7.82916 7.03125 6.95471 7.90569 6.95471 8.98438C6.95471 10.0631 7.82916 10.9375 8.90784 10.9375Z" fill="#D0CFD4"/>
<path d="M17.8922 10.9375C18.9709 10.9375 19.8453 10.0631 19.8453 8.98438C19.8453 7.90569 18.9709 7.03125 17.8922 7.03125C16.8135 7.03125 15.9391 7.90569 15.9391 8.98438C15.9391 10.0631 16.8135 10.9375 17.8922 10.9375Z" fill="#D0CFD4"/>
</g>
<defs>
<clipPath id="clip0_923_1521">
<rect width="25" height="25" fill="white" transform="translate(0.900024)"/>
</clipPath>
</defs>
</svg>
