<svg width="26" height="25" viewBox="0 0 26 25" fill="none" xmlns="http://www.w3.org/2000/svg">
<path d="M13.2 0.78125C6.72808 0.78125 1.4812 6.02812 1.4812 12.5C1.4812 18.9719 6.72808 24.2188 13.2 24.2188C19.6718 24.2188 24.9187 18.9719 24.9187 12.5C24.9187 6.02812 19.6718 0.78125 13.2 0.78125ZM13.2 23.2422C7.27651 23.2422 2.45776 18.4234 2.45776 12.5C2.45776 6.57656 7.27651 1.75781 13.2 1.75781C19.123 1.75781 23.9421 6.57656 23.9421 12.5C23.9421 18.4234 19.123 23.2422 13.2 23.2422Z" fill="#D0CFD4"/>
<path d="M8.70776 11.5593C9.78644 11.5593 10.6609 10.6849 10.6609 9.6062C10.6609 8.52752 9.78644 7.65308 8.70776 7.65308C7.62908 7.65308 6.75464 8.52752 6.75464 9.6062C6.75464 10.6849 7.62908 11.5593 8.70776 11.5593Z" fill="#D0CFD4"/>
<path d="M17.6921 11.5593C18.7708 11.5593 19.6453 10.6849 19.6453 9.6062C19.6453 8.52752 18.7708 7.65308 17.6921 7.65308C16.6135 7.65308 15.739 8.52752 15.739 9.6062C15.739 10.6849 16.6135 11.5593 17.6921 11.5593Z" fill="#D0CFD4"/>
<path d="M18.1748 17.0887C16.9726 18.3974 15.5496 18.7267 13.6996 18.7267C11.8499 18.7267 10.4269 18.3976 9.22469 17.0887C9.0572 16.9066 8.61637 17.0212 8.71387 17.2856C9.34525 19.001 11.4916 20 13.6999 20C15.9082 20 18.0548 19.001 18.6862 17.2856C18.7831 17.021 18.3423 16.9066 18.1748 17.0887Z" fill="#D0CFD4"/>
</svg>
