<svg width="26" height="25" viewBox="0 0 26 25" fill="none" xmlns="http://www.w3.org/2000/svg">
<path d="M12.7999 0.78125C6.32805 0.78125 1.08118 6.02812 1.08118 12.5C1.08118 18.9719 6.32805 24.2188 12.7999 24.2188C19.2718 24.2188 24.5187 18.9719 24.5187 12.5C24.5187 6.02812 19.2718 0.78125 12.7999 0.78125ZM12.7999 23.2422C6.87649 23.2422 2.05774 18.4234 2.05774 12.5C2.05774 6.57656 6.87649 1.75781 12.7999 1.75781C18.7234 1.75781 23.5421 6.57656 23.5421 12.5C23.5421 18.4234 18.7234 23.2422 12.7999 23.2422Z" fill="#D0CFD4"/>
<path d="M8.30774 11.5593C9.38642 11.5593 10.2609 10.6849 10.2609 9.6062C10.2609 8.52752 9.38642 7.65308 8.30774 7.65308C7.22906 7.65308 6.35461 8.52752 6.35461 9.6062C6.35461 10.6849 7.22906 11.5593 8.30774 11.5593Z" fill="#D0CFD4"/>
<path d="M17.2921 11.5593C18.3708 11.5593 19.2452 10.6849 19.2452 9.6062C19.2452 8.52752 18.3708 7.65308 17.2921 7.65308C16.2134 7.65308 15.339 8.52752 15.339 9.6062C15.339 10.6849 16.2134 11.5593 17.2921 11.5593Z" fill="#D0CFD4"/>
<path d="M12.7999 14.2859C10.3179 14.2859 8.38042 15.6937 7.42065 17.2742C7.16362 17.6968 7.50542 18.1546 7.88471 17.8906C11.0523 15.6812 14.5671 15.6941 17.716 17.8906C18.0953 18.1546 18.4371 17.6968 18.18 17.2742C17.2195 15.6937 15.282 14.2859 12.7999 14.2859Z" fill="#D0CFD4"/>
</svg>
