<svg width="30" height="30" viewBox="0 0 30 30" fill="none" xmlns="http://www.w3.org/2000/svg">
<path d="M29.9998 19.0537V21.129C29.9998 21.4733 29.9848 21.8207 29.9548 22.1651C29.5339 26.9037 26.2423 30.0001 21.4928 30.0001H8.50686C6.10205 30.0001 4.073 29.2196 2.61508 27.8045C2.04394 27.2797 1.56298 26.6631 1.18723 25.9563C1.68322 25.3533 2.23933 24.6931 2.78041 24.0314C3.69725 22.9336 4.58402 21.8493 5.14013 21.144C5.96678 20.1214 8.14614 17.4295 11.1672 18.6927C11.7834 18.9484 12.3245 19.3093 12.8205 19.6251C14.0379 20.4372 14.5489 20.6778 15.4057 20.2116C16.3526 19.7003 16.9688 18.6927 17.6151 17.64C17.9608 17.0821 18.3065 16.5422 18.6822 16.046C20.3205 13.9105 22.8455 13.3391 24.9497 14.6023C26.0019 15.2339 26.9037 16.0309 27.7453 16.8415C27.9257 17.022 28.1061 17.1889 28.2714 17.3543C28.4968 17.5799 29.2483 18.3318 29.9998 19.0537Z" fill="#5669FF"/>
<path opacity="0.4" d="M21.508 0H8.50701C3.41182 0 0 3.56411 0 8.87117V21.129C0 22.9772 0.420842 24.6179 1.18737 25.9563C1.68337 25.3533 2.23948 24.6931 2.78056 24.0299C3.69739 22.9336 4.58417 21.8493 5.14028 21.144C5.96693 20.1214 8.14629 17.4295 11.1673 18.6928C11.7836 18.9484 12.3246 19.3093 12.8206 19.6251C14.0381 20.4372 14.5491 20.6778 15.4058 20.2101C16.3527 19.7003 16.9689 18.6928 17.6152 17.6386C17.9609 17.0821 18.3066 16.5423 18.6824 16.046C20.3206 13.9105 22.8457 13.3391 24.9499 14.6023C26.002 15.2339 26.9038 16.031 27.7455 16.8415C27.9259 17.022 28.1062 17.1889 28.2715 17.3543C28.497 17.5784 29.2485 18.3303 30 19.0537V8.87117C30 3.56411 26.5882 0 21.508 0Z" fill="#5669FF"/>
<path d="M14.1816 10.1951C14.1816 12.308 12.4216 14.0675 10.3099 14.0675C8.19966 14.0675 6.43964 12.308 6.43964 10.1951C6.43964 8.08375 8.19966 6.32275 10.3099 6.32275C12.4216 6.32275 14.1816 8.08375 14.1816 10.1951Z" fill="#5669FF"/>
</svg>
