<svg width="23" height="23" viewBox="0 0 23 23" fill="none" xmlns="http://www.w3.org/2000/svg">
<path d="M11.5 21.0833C16.7927 21.0833 21.0834 16.7927 21.0834 11.5C21.0834 6.20723 16.7927 1.91663 11.5 1.91663C6.20729 1.91663 1.91669 6.20723 1.91669 11.5C1.91669 16.7927 6.20729 21.0833 11.5 21.0833Z" stroke="#888693" stroke-width="1.5" stroke-linecap="round" stroke-linejoin="round"/>
<path d="M8.71124 8.62506C8.93655 7.98457 9.38126 7.44449 9.96662 7.10048C10.552 6.75646 11.2402 6.63071 11.9094 6.74549C12.5786 6.86027 13.1855 7.20818 13.6228 7.7276C14.06 8.24703 14.2993 8.90443 14.2983 9.58339C14.2983 11.5001 11.4233 12.4584 11.4233 12.4584V14.0897" stroke="#888693" stroke-width="1.5" stroke-linecap="round" stroke-linejoin="round"/>
<path d="M11.5 16.2916H11.5104" stroke="#888693" stroke-width="1.5" stroke-linecap="round" stroke-linejoin="round"/>
</svg>
