<svg width="24" height="24" viewBox="0 0 24 24" fill="none" xmlns="http://www.w3.org/2000/svg">
<path d="M20.074 7.91816C20.0737 8.2305 19.9996 8.53841 19.8577 8.81703C19.7159 9.09564 19.5101 9.33716 19.2571 9.52209C19.0042 9.70702 18.711 9.83018 18.4014 9.88162C18.0918 9.93307 17.7743 9.91136 17.4747 9.81824C16.9925 9.6642 16.5852 9.33703 16.3323 8.9005C16.3323 8.89211 16.2724 8.77634 16.2218 8.67064C16.1822 8.58675 16.1578 8.53642 16.1561 8.5339C15.1705 6.47946 12.6648 5.66909 12.6648 5.66909C12.0902 5.4978 11.4941 5.40855 10.8943 5.404C9.96437 5.40416 9.04741 5.62098 8.21685 6.0371C7.38628 6.45322 6.66519 7.05708 6.11131 7.80031C5.55743 8.54355 5.18616 9.4055 5.02724 10.3172C4.86831 11.2288 4.92614 12.1648 5.1961 13.0503C5.46606 13.9357 5.94064 14.7459 6.58184 15.416C7.22305 16.0862 8.01305 16.5976 8.88859 16.9093C9.76412 17.2211 10.7009 17.3245 11.6238 17.2114C12.5467 17.0982 13.4302 16.7715 14.2035 16.2576L15.2405 17.2894L16.1021 18.1468L17.0523 19.093C15.4429 20.3557 13.4805 21.0925 11.4339 21.2023C9.3873 21.3122 7.35664 20.7897 5.62005 19.7066C3.88346 18.6235 2.52589 17.0326 1.7333 15.152C0.94071 13.2713 0.75186 11.1928 1.19262 9.20121C1.63338 7.2096 2.6822 5.40228 4.1954 4.02683C5.70861 2.65137 7.61219 1.77505 9.64539 1.5179C11.6786 1.26076 13.742 1.63536 15.5529 2.5904C17.3638 3.54544 18.8337 5.0342 19.7612 6.85276C19.8337 6.9937 19.9028 7.13799 19.9686 7.28312C20.0382 7.48767 20.0738 7.70218 20.074 7.91816Z" fill="#5669FF"/>
<path d="M23.04 20.3294C23.0394 20.5352 23.0073 20.7397 22.9447 20.9359C22.8208 21.3057 22.5939 21.633 22.2905 21.8796C21.9355 22.1654 21.4926 22.3209 21.036 22.32C20.7987 22.325 20.5629 22.2831 20.3421 22.1967C20.2299 22.151 20.1223 22.0949 20.0209 22.0289C19.6904 21.8083 18.5454 20.6792 17.054 19.0928L16.1038 18.1466L15.2422 17.2892L14.2051 16.2574C14.6043 15.9587 14.9821 15.6327 15.3357 15.2817C15.7193 14.9009 15.9664 14.5947 16.4233 14.4504C16.6221 14.3916 16.8281 14.36 17.0354 14.3564C17.5247 14.356 17.9973 14.5328 18.365 14.8539L18.553 15.041L19.6103 16.093L22.4102 18.8797C22.6095 19.0655 22.7682 19.29 22.8766 19.5394C22.9849 19.7888 23.0406 20.0577 23.04 20.3294Z" fill="#00F8FF"/>
</svg>
