<svg width="19" height="19" viewBox="0 0 19 19" fill="none" xmlns="http://www.w3.org/2000/svg">
<g clip-path="url(#clip0_148_4304)">
<path d="M6.42054 3.7237V12.5631C5.8569 12.051 5.10831 11.7386 4.28815 11.7386C2.53918 11.7386 1.11627 13.1592 1.11627 14.9054C1.11627 16.6516 2.53918 18.0722 4.28815 18.0722C6.03495 18.0722 7.45623 16.6551 7.45989 14.912H7.46002V8.59565L16.5689 5.8627V10.4326C16.0053 9.92065 15.2567 9.60807 14.4365 9.60807C12.6876 9.60807 11.2647 11.0287 11.2647 12.7749C11.2647 14.5211 12.6876 15.9417 14.4365 15.9417C16.1796 15.9417 17.5985 14.5307 17.6082 12.7926H17.6084V0.366943L6.42054 3.7237Z" fill="white"/>
</g>
<defs>
<clipPath id="clip0_148_4304">
<rect width="17.7335" height="17.7052" fill="white" transform="translate(0.492798 0.401123)"/>
</clipPath>
</defs>
</svg>
