<svg width="32" height="32" viewBox="0 0 32 32" fill="none" xmlns="http://www.w3.org/2000/svg">
<path d="M11.9988 28.9868V25.9868V28.9868Z" fill="#5669FF"/>
<path d="M11.9988 28.9868V25.9868" stroke="#5669FF" stroke-width="3" stroke-miterlimit="10" stroke-linecap="round"/>
<path d="M5.63501 26.3507L7.75626 24.2295L5.63501 26.3507Z" fill="#5669FF"/>
<path d="M5.63501 26.3507L7.75626 24.2295" stroke="#5669FF" stroke-width="3" stroke-miterlimit="10" stroke-linecap="round"/>
<path d="M2.99878 19.9868H5.99878H2.99878Z" fill="#5669FF"/>
<path d="M2.99878 19.9868H5.99878" stroke="#5669FF" stroke-width="3" stroke-miterlimit="10" stroke-linecap="round"/>
<path d="M16.7225 19.5201L14.7781 21.4645C14.6852 21.5573 14.6115 21.6676 14.5612 21.7889C14.511 21.9103 14.4851 22.0403 14.4851 22.1717C14.4851 22.303 14.511 22.4331 14.5612 22.5544C14.6115 22.6757 14.6852 22.786 14.7781 22.8788L17.6068 25.707C17.7943 25.8944 18.0486 25.9996 18.3137 25.9996C18.5788 25.9996 18.8331 25.8944 19.0206 25.707L20.9656 23.7626C20.9888 23.7394 21.0073 23.7118 21.0198 23.6815C21.0324 23.6511 21.0389 23.6186 21.0389 23.5857C21.0389 23.5529 21.0324 23.5203 21.0198 23.49C21.0073 23.4596 20.9888 23.4321 20.9656 23.4088L17.0762 19.5201C17.053 19.4969 17.0254 19.4784 16.9951 19.4658C16.9647 19.4533 16.9322 19.4468 16.8993 19.4468C16.8665 19.4468 16.8339 19.4533 16.8036 19.4658C16.7732 19.4784 16.7457 19.4969 16.7225 19.5201Z" fill="#5669FF"/>
<path d="M8.23752 11.0343L6.29315 12.9793C6.10576 13.1668 6.00049 13.421 6.00049 13.6861C6.00049 13.9512 6.10576 14.2055 6.29315 14.393L9.12127 17.2218C9.21414 17.3146 9.32439 17.3883 9.44573 17.4386C9.56707 17.4889 9.69712 17.5147 9.82846 17.5147C9.9598 17.5147 10.0899 17.4889 10.2112 17.4386C10.3325 17.3883 10.4428 17.3146 10.5357 17.2218L12.48 15.2774C12.5033 15.2542 12.5217 15.2266 12.5343 15.1962C12.5469 15.1659 12.5533 15.1334 12.5533 15.1005C12.5533 15.0677 12.5469 15.0351 12.5343 15.0048C12.5217 14.9744 12.5033 14.9469 12.48 14.9236L8.59128 11.0343C8.56806 11.011 8.54048 10.9926 8.51013 10.98C8.47979 10.9674 8.44725 10.9609 8.4144 10.9609C8.38155 10.9609 8.34901 10.9674 8.31866 10.98C8.28832 10.9926 8.26074 11.011 8.23752 11.0343Z" fill="#5669FF"/>
<path d="M26.8031 5.20483C25.9675 4.36827 24.9753 3.70454 23.8832 3.25158C22.791 2.79861 21.6203 2.56529 20.4379 2.56494C19.2556 2.56459 18.0847 2.79723 16.9923 3.24955C15.8999 3.70187 14.9073 4.36501 14.0712 5.20108L10.005 9.26671C9.98172 9.28993 9.96328 9.3175 9.9507 9.34785C9.93812 9.3782 9.93164 9.41073 9.93164 9.44358C9.93164 9.47644 9.93812 9.50897 9.9507 9.53932C9.96328 9.56967 9.98172 9.59724 10.005 9.62046L13.8943 13.5092C13.9176 13.5325 13.9451 13.5509 13.9755 13.5635C14.0058 13.5761 14.0384 13.5825 14.0712 13.5825C14.1041 13.5825 14.1366 13.5761 14.1669 13.5635C14.1973 13.5509 14.2249 13.5325 14.2481 13.5092L18.3106 9.44358C18.5922 9.16195 18.9271 8.93922 19.2958 8.78839C19.6644 8.63756 20.0594 8.56165 20.4577 8.56508C20.856 8.56852 21.2496 8.65123 21.6156 8.80839C21.9816 8.96555 22.3126 9.19401 22.5893 9.48046C23.7331 10.663 23.6812 12.558 22.5181 13.7211L18.4906 17.7498C18.4673 17.7731 18.4489 17.8006 18.4363 17.831C18.4237 17.8613 18.4173 17.8939 18.4173 17.9267C18.4173 17.9596 18.4237 17.9921 18.4363 18.0224C18.4489 18.0528 18.4673 18.0804 18.4906 18.1036L22.3793 21.993C22.4026 22.0162 22.4301 22.0346 22.4605 22.0472C22.4908 22.0598 22.5234 22.0663 22.5562 22.0663C22.5891 22.0663 22.6216 22.0598 22.6519 22.0472C22.6823 22.0346 22.7099 22.0162 22.7331 21.993L26.7381 17.988C30.2612 14.4667 30.3237 8.72983 26.8031 5.20483Z" fill="#5669FF"/>
</svg>
