<svg width="23" height="23" viewBox="0 0 23 23" fill="none" xmlns="http://www.w3.org/2000/svg">
<g clip-path="url(#clip0_106_18902)">
<path d="M11.9707 19.9084C11.6678 20.0253 11.3322 20.0253 11.0292 19.9084C8.6632 18.9807 6.63162 17.3616 5.19938 15.2622C3.76714 13.1628 3.0007 10.6806 3 8.13922V4.30769C3 3.96086 3.13777 3.62825 3.38301 3.38301C3.62825 3.13777 3.96086 3 4.30769 3H18.6923C19.0391 3 19.3717 3.13777 19.6169 3.38301C19.8621 3.62825 20 3.96086 20 4.30769V8.12614C20.0019 10.6698 19.2367 13.1548 17.8042 15.2568C16.3719 17.3588 14.3388 18.9798 11.9707 19.9084Z" stroke="#888693" stroke-width="1.5" stroke-linecap="round" stroke-linejoin="round"/>
<path d="M6.05548 16.3782C7.22745 14.62 9.22846 13.4615 11.5 13.4615C13.7716 13.4615 15.7726 14.6199 16.9445 16.3782" stroke="#888693" stroke-width="1.5" stroke-linecap="round" stroke-linejoin="round"/>
<path d="M11.5 11.4998C13.125 11.4998 14.4423 10.1825 14.4423 8.55754C14.4423 6.93255 13.125 5.61523 11.5 5.61523C9.87505 5.61523 8.55774 6.93255 8.55774 8.55754C8.55774 10.1825 9.87505 11.4998 11.5 11.4998Z" stroke="#888693" stroke-width="1.5" stroke-linecap="round" stroke-linejoin="round"/>
</g>
<defs>
<clipPath id="clip0_106_18902">
<rect width="19" height="19" fill="white" transform="translate(2 2)"/>
</clipPath>
</defs>
</svg>
