<svg width="23" height="23" viewBox="0 0 23 23" fill="none" xmlns="http://www.w3.org/2000/svg">
<path fill-rule="evenodd" clip-rule="evenodd" d="M16.5341 7.09209C16.5341 9.95035 14.2809 12.2674 11.5015 12.2674C8.72216 12.2674 6.46903 9.95035 6.46903 7.09209C6.46903 4.23383 8.72216 1.91675 11.5015 1.91675C14.2809 1.91675 16.5341 4.23383 16.5341 7.09209ZM15.821 15.1834C17.4212 15.5073 18.4658 16.036 18.9135 16.8886C19.2498 17.554 19.2498 18.3462 18.9135 19.0116C18.4658 19.8642 17.4626 20.4269 15.8045 20.7168C15.0656 20.8658 14.3177 20.9626 13.5659 21.0067C12.8695 21.0834 12.1731 21.0834 11.4684 21.0834H10.1999C9.93458 21.0493 9.67757 21.0323 9.42884 21.0323C8.6771 20.9936 7.92901 20.8996 7.19033 20.7509C5.59021 20.444 4.54557 19.8983 4.09787 19.0457C3.92504 18.7154 3.83392 18.3465 3.83256 17.9714C3.82896 17.594 3.91732 17.2218 4.08958 16.8886C4.52899 16.036 5.57363 15.4818 7.19033 15.1834C7.93226 15.0377 8.6829 14.9437 9.43714 14.902C10.8168 14.7908 12.2028 14.7908 13.5825 14.902C14.3338 14.9458 15.0816 15.0398 15.821 15.1834Z" fill="#200E32"/>
</svg>
