<svg width="19" height="19" viewBox="0 0 19 19" fill="none" xmlns="http://www.w3.org/2000/svg">
<path d="M8.8046 2.79139C8.68888 2.0294 8.45488 1.25807 8.11403 0.504395C6.34401 0.753286 4.7419 1.52459 3.46845 2.65766L7.86787 7.05711C8.72743 5.96398 9.05965 4.4709 8.8046 2.79139V2.79139Z" fill="white"/>
<path d="M7.87249 8.53003C6.82178 9.39758 5.46995 9.85083 3.95114 9.85086C3.54875 9.85086 3.13478 9.81907 2.71146 9.75482C1.97192 9.64249 1.22646 9.4318 0.494886 9.1312C0.494089 9.1816 0.493015 9.23196 0.493015 9.28256C0.493015 11.5441 1.34017 13.6074 2.7338 15.1738L8.62502 9.28256L7.87249 8.53003Z" fill="white"/>
<path d="M7.1333 7.79029L2.73384 3.39087C1.60077 4.66432 0.82947 6.26639 0.580578 8.03641C1.33428 8.37726 2.10566 8.61133 2.86754 8.72705C4.54716 8.98214 6.0402 8.64984 7.1333 7.79029V7.79029Z" fill="white"/>
<path d="M15.852 9.83837C14.1725 9.58324 12.6794 9.91554 11.5863 10.7751L15.9857 15.1745C17.1188 13.9011 17.8901 12.299 18.139 10.529C17.3854 10.1882 16.614 9.95412 15.852 9.83837Z" fill="white"/>
<path d="M10.112 10.7707L9.35967 10.0183L3.46845 15.9095C5.03478 17.3032 7.09813 18.1503 9.35967 18.1503C9.41027 18.1503 9.46063 18.1492 9.51102 18.1484C9.21046 17.4168 8.99973 16.6714 8.88741 15.9318C8.58054 13.9108 9.01462 12.0997 10.112 10.7707V10.7707Z" fill="white"/>
<path d="M8.60733 7.79591L9.35969 8.54826L15.2509 2.65705C13.6846 1.26338 11.6212 0.41626 9.35969 0.41626C9.30908 0.41626 9.25872 0.417333 9.20833 0.418165C9.5089 1.1497 9.71962 1.8951 9.83194 2.63474C10.1388 4.65577 9.70473 6.46687 8.60733 7.79591Z" fill="white"/>
<path d="M9.91454 15.7752C10.0302 16.5371 10.2643 17.3085 10.6051 18.0622C12.3752 17.8133 13.9772 17.042 15.2507 15.909L10.8512 11.5095C9.99171 12.6027 9.65949 14.0957 9.91454 15.7752Z" fill="white"/>
<path d="M10.8471 10.0345C12.1761 8.93704 13.9872 8.50299 16.0082 8.80986C16.7479 8.92218 17.4933 9.13294 18.2248 9.43348C18.2256 9.38308 18.2267 9.33272 18.2267 9.28208C18.2267 7.02055 17.3795 4.9572 15.9859 3.39087L10.0947 9.28212L10.8471 10.0345Z" fill="white"/>
</svg>
