<svg width="16" height="16" viewBox="0 0 16 16" fill="none" xmlns="http://www.w3.org/2000/svg">
<g clip-path="url(#clip0_100_14484)">
<path fill-rule="evenodd" clip-rule="evenodd" d="M12.8571 6.28571C14.5929 6.28571 16 4.87861 16 3.14286C16 1.40711 14.5929 0 12.8571 0C11.1214 0 9.71429 1.40711 9.71429 3.14286C9.71429 3.19283 9.71545 3.24254 9.71776 3.29194L5.14577 5.57793C4.60195 5.12771 3.904 4.85714 3.14286 4.85714C1.40711 4.85714 0 6.26425 0 8C0 9.73575 1.40711 11.1429 3.14286 11.1429C3.904 11.1429 4.60195 10.8723 5.14577 10.4221L9.71776 12.7081C9.71545 12.7575 9.71429 12.8072 9.71429 12.8571C9.71429 14.5929 11.1214 16 12.8571 16C14.5929 16 16 14.5929 16 12.8571C16 11.1214 14.5929 9.71429 12.8571 9.71429C11.9974 9.71429 11.2181 10.0596 10.6507 10.619L6.25757 8.42246C6.27613 8.28429 6.28571 8.14326 6.28571 8C6.28571 7.85674 6.27613 7.71571 6.25757 7.57754L10.6507 5.38097C11.2181 5.94043 11.9974 6.28571 12.8571 6.28571Z" fill="#00F8FF"/>
</g>
<defs>
<clipPath id="clip0_100_14484">
<rect width="16" height="16" fill="white"/>
</clipPath>
</defs>
</svg>
