<svg width="19" height="18" viewBox="0 0 19 18" fill="none" xmlns="http://www.w3.org/2000/svg">
<g clip-path="url(#clip0_148_4311)">
<path fill-rule="evenodd" clip-rule="evenodd" d="M9.94912 0.936532C9.78606 0.865882 9.60102 0.865882 9.43797 0.936532L1.08082 4.55747C0.845709 4.65934 0.693542 4.8911 0.693542 5.14734C0.693542 5.40357 0.845709 5.63533 1.08082 5.73721L2.22845 6.23445V13.4229C1.67002 13.6707 1.28051 14.23 1.28051 14.8803C1.28051 15.7604 1.99395 16.4738 2.87404 16.4738C3.75412 16.4738 4.46756 15.7604 4.46756 14.8803C4.46756 14.2293 4.07731 13.6695 3.51801 13.4222V6.79319L9.43797 9.35815C9.60102 9.4288 9.78606 9.4288 9.94912 9.35815L18.3063 5.73721C18.5413 5.63533 18.6935 5.40357 18.6935 5.14734C18.6935 4.8911 18.5413 4.65934 18.3063 4.55747L9.94912 0.936532ZM4.49372 12.0259L4.48727 8.96491L8.79843 10.8328C9.36914 11.0801 10.0168 11.0801 10.5875 10.8328L14.8994 8.96458L14.9 12.0244C14.9 12.1649 14.854 12.3016 14.769 12.4135L14.2572 12.0246C14.769 12.4135 14.7693 12.4132 14.769 12.4135L14.7681 12.4146L14.7671 12.416L14.7647 12.4192L14.7581 12.4276L14.7384 12.452C14.7225 12.4715 14.7008 12.4974 14.673 12.5288C14.6176 12.5915 14.5382 12.6762 14.4342 12.7753C14.2262 12.9735 13.918 13.2306 13.5027 13.4854C12.668 13.9977 11.4119 14.4934 9.6932 14.4934C7.97444 14.4934 6.71992 13.9977 5.88672 13.485C5.4722 13.2301 5.16488 12.9728 4.95747 12.7745C4.85372 12.6752 4.77467 12.5905 4.71945 12.5277C4.69182 12.4963 4.6701 12.4704 4.65419 12.4508L4.63464 12.4264L4.6281 12.4179L4.62562 12.4147L4.62459 12.4133C4.62437 12.413 4.62368 12.4121 5.13652 12.0246L4.62368 12.4121C4.53963 12.3009 4.49401 12.1653 4.49372 12.0259Z" fill="white"/>
</g>
<defs>
<clipPath id="clip0_148_4311">
<rect width="18" height="18" fill="white" transform="translate(0.693542)"/>
</clipPath>
</defs>
</svg>
