<svg width="23" height="23" viewBox="0 0 23 23" fill="none" xmlns="http://www.w3.org/2000/svg">
<path opacity="0.01" fill-rule="evenodd" clip-rule="evenodd" d="M0 0V23H23V0H0Z" fill="#1C8FF8" fill-opacity="0.338428"/>
<path fill-rule="evenodd" clip-rule="evenodd" d="M11.2604 14.4185C12.74 14.4185 13.9394 13.2191 13.9394 11.7395C13.9394 10.26 12.74 9.06055 11.2604 9.06055C9.78084 9.06055 8.58142 10.26 8.58142 11.7395C8.58142 13.2191 9.78084 14.4185 11.2604 14.4185Z" stroke="#888693" stroke-width="1.5" stroke-linecap="round" stroke-linejoin="round"/>
<path fill-rule="evenodd" clip-rule="evenodd" d="M17.8686 14.4185C17.6254 14.9696 17.7421 15.6132 18.1632 16.0438L18.2168 16.0973C18.5522 16.4323 18.7406 16.8869 18.7406 17.3609C18.7406 17.8349 18.5522 18.2895 18.2168 18.6245C17.8818 18.9599 17.4273 19.1483 16.9532 19.1483C16.4792 19.1483 16.0247 18.9599 15.6897 18.6245L15.6361 18.5709C15.2055 18.1497 14.5619 18.033 14.0108 18.2762C13.471 18.5076 13.1202 19.0374 13.1178 19.6247V19.7765C13.1178 20.7628 12.3182 21.5625 11.3319 21.5625C10.3455 21.5625 9.54587 20.7628 9.54587 19.7765V19.6961C9.53172 19.0913 9.14927 18.5565 8.58144 18.3477C8.03038 18.1045 7.38678 18.2212 6.95619 18.6424L6.90261 18.696C6.56762 19.0313 6.11305 19.2198 5.63903 19.2198C5.16501 19.2198 4.71044 19.0313 4.37544 18.696C4.04008 18.361 3.85164 17.9064 3.85164 17.4324C3.85164 16.9584 4.04008 16.5038 4.37544 16.1688L4.42902 16.1152C4.85022 15.6846 4.96692 15.041 4.72371 14.49C4.49237 13.9502 3.96256 13.5993 3.37529 13.597H3.22348C2.23711 13.597 1.4375 12.7974 1.4375 11.811C1.4375 10.8246 2.23711 10.025 3.22348 10.025H3.30385C3.9087 10.0108 4.44343 9.62839 4.65227 9.06057C4.89548 8.50951 4.77878 7.86591 4.35759 7.43532L4.30401 7.38174C3.96864 7.04675 3.7802 6.59217 3.7802 6.11816C3.7802 5.64414 3.96864 5.18957 4.30401 4.85457C4.639 4.5192 5.09357 4.33077 5.56759 4.33077C6.04161 4.33077 6.49618 4.5192 6.83117 4.85457L6.88475 4.90815C7.31534 5.32934 7.95894 5.44604 8.51 5.20284H8.58144C9.12123 4.97149 9.47209 4.44169 9.47443 3.85442V3.70261C9.47443 2.71624 10.274 1.91663 11.2604 1.91663C12.2468 1.91663 13.0464 2.71624 13.0464 3.70261V3.78298C13.0487 4.37025 13.3996 4.90005 13.9394 5.1314C14.4905 5.3746 15.1341 5.25791 15.5646 4.83671L15.6182 4.78313C15.9532 4.44776 16.4078 4.25933 16.8818 4.25933C17.3558 4.25933 17.8104 4.44776 18.1454 4.78313C18.4808 5.11813 18.6692 5.5727 18.6692 6.04672C18.6692 6.52073 18.4808 6.97531 18.1454 7.3103L18.0918 7.36388C17.6706 7.79447 17.5539 8.43807 17.7971 8.98913V9.06057C18.0285 9.60035 18.5583 9.95122 19.1455 9.95356H19.2973C20.2837 9.95356 21.0833 10.7532 21.0833 11.7395C21.0833 12.7259 20.2837 13.5255 19.2973 13.5255H19.217C18.6297 13.5279 18.0999 13.8787 17.8686 14.4185Z" stroke="#888693" stroke-width="1.5" stroke-linecap="round" stroke-linejoin="round"/>
</svg>
