<svg width="32" height="32" viewBox="0 0 32 32" fill="none" xmlns="http://www.w3.org/2000/svg">
<g clip-path="url(#clip0_1215_4707)">
<path fill-rule="evenodd" clip-rule="evenodd" d="M31 16C31 7.71574 24.2843 1 16 1C7.71578 1 1.00005 7.71574 1.00005 16C1.00005 24.2843 7.71578 31 16 31C24.2843 31 31 24.2843 31 16ZM23.3717 11.6104C23.3717 12.8211 22.3917 13.8029 21.1816 13.8057L21.1764 13.8057C19.9639 13.8057 18.981 12.8228 18.981 11.6104C18.981 10.3996 19.9611 9.41783 21.1712 9.41502L21.1764 9.415C22.3888 9.415 23.3717 10.3979 23.3717 11.6104ZM13.0191 11.6104C13.0191 12.8211 12.039 13.8029 10.8289 13.8057L10.8237 13.8057C9.61125 13.8057 8.62834 12.8228 8.62834 11.6104C8.62834 10.3996 9.60844 9.41781 10.8185 9.41502L10.8237 9.415C12.0362 9.415 13.0191 10.3979 13.0191 11.6104ZM9.97851 17.6296C9.78632 16.9153 9.05147 16.4921 8.33721 16.6843C7.62295 16.8765 7.19976 17.6114 7.39197 18.3256C8.41403 22.1236 11.8805 24.9209 16.0038 24.9209C20.127 24.9209 23.5935 22.1236 24.6156 18.3256C24.8078 17.6114 24.3846 16.8765 23.6704 16.6843C22.9562 16.4921 22.2213 16.9153 22.029 17.6296C21.3138 20.2876 18.8853 22.2423 16.0038 22.2423C13.1222 22.2423 10.6938 20.2876 9.97851 17.6296Z" fill="white"/>
</g>
<defs>
<clipPath id="clip0_1215_4707">
<rect width="30" height="30" fill="white" transform="translate(1.00005 1)"/>
</clipPath>
</defs>
</svg>
