<svg width="32" height="32" viewBox="0 0 32 32" fill="none" xmlns="http://www.w3.org/2000/svg">
<g clip-path="url(#clip0_1215_3970)">
<path fill-rule="evenodd" clip-rule="evenodd" d="M10.6429 3.14286C10.6429 1.95939 9.6835 1 8.50005 1C7.31659 1 6.35719 1.95939 6.35719 3.14286V5.28571H4.21433C2.43913 5.28571 1.00005 6.72479 1.00005 8.5V11.7143H31V8.5C31 6.72479 29.5609 5.28571 27.7858 5.28571H25.6431V3.14286C25.6431 1.95939 24.6838 1 23.5003 1C22.3168 1 21.3574 1.95939 21.3574 3.14286V5.28571H10.6429V3.14286ZM31 14.3929H1.00005V27.7857C1.00005 29.5609 2.43913 31 4.21433 31H27.7858C29.5609 31 31 29.5609 31 27.7857V14.3929Z" fill="white"/>
</g>
<defs>
<clipPath id="clip0_1215_3970">
<rect width="30" height="30" fill="white" transform="translate(1.00005 1)"/>
</clipPath>
</defs>
</svg>
