<svg width="32" height="32" viewBox="0 0 32 32" fill="none" xmlns="http://www.w3.org/2000/svg">
<g clip-path="url(#clip0_1215_5310)">
<path fill-rule="evenodd" clip-rule="evenodd" d="M16 31C24.2843 31 31 24.2843 31 16C31 7.71573 24.2843 1 16 1C7.71577 1 1.00005 7.71573 1.00005 16C1.00005 24.2843 7.71577 31 16 31ZM9.31276 12.1646C8.99055 11.9207 8.53331 11.9478 8.24111 12.2459C7.91969 12.5738 7.91969 13.1053 8.24111 13.4332L15.4181 20.7541L15.5104 20.8354C15.8326 21.0793 16.2898 21.0522 16.582 20.7541L23.759 13.4332L23.8387 13.339C24.0777 13.0104 24.0512 12.544 23.759 12.2459L23.6667 12.1646C23.3445 11.9207 22.8872 11.9478 22.595 12.2459L16 18.9734L9.40507 12.2459L9.31276 12.1646Z" fill="white"/>
</g>
<defs>
<clipPath id="clip0_1215_5310">
<rect width="30" height="30" fill="white" transform="translate(1.00005 1)"/>
</clipPath>
</defs>
</svg>
