<svg width="32" height="32" viewBox="0 0 32 32" fill="none" xmlns="http://www.w3.org/2000/svg">
<g clip-path="url(#clip0_1215_579)">
<path fill-rule="evenodd" clip-rule="evenodd" d="M16 31C24.2843 31 31 24.2843 31 16C31 7.71573 24.2843 1 16 1C7.71577 1 1.00005 7.71573 1.00005 16C1.00005 24.2843 7.71577 31 16 31ZM21.21 15C21.6 14.12 22.47 13.5 23.5 13.5C24.88 13.5 26 14.62 26 16C26 17.38 24.88 18.5 23.5 18.5C22.47 18.5 21.6 17.88 21.21 17H18.29C17.9 17.88 17.03 18.5 16 18.5C14.97 18.5 14.1 17.88 13.71 17H10.79C10.4 17.88 9.53005 18.5 8.50005 18.5C7.12005 18.5 6.00005 17.38 6.00005 16C6.00005 14.62 7.12005 13.5 8.50005 13.5C9.53005 13.5 10.4 14.12 10.79 15H13.71C14.1 14.12 14.97 13.5 16 13.5C17.03 13.5 17.9 14.12 18.29 15H21.21Z" fill="white"/>
</g>
<defs>
<clipPath id="clip0_1215_579">
<rect width="30" height="30" fill="white" transform="translate(1.00005 1)"/>
</clipPath>
</defs>
</svg>
