<svg width="32" height="32" viewBox="0 0 32 32" fill="none" xmlns="http://www.w3.org/2000/svg">
<path fill-rule="evenodd" clip-rule="evenodd" d="M4.08435 1.94144C4.68713 1.33865 5.50472 1 6.35719 1H19.2143C19.4985 1 19.771 1.11288 19.9719 1.31381L28.5435 9.88525C28.7443 10.0862 28.8572 10.3587 28.8572 10.6429V27.7857C28.8572 28.6381 28.5186 29.4559 27.9158 30.0586C27.313 30.6614 26.4953 31 25.6429 31H6.35719C5.5047 31 4.68713 30.6614 4.08435 30.0586C3.48156 29.4559 3.14291 28.6381 3.14291 27.7857V4.21429C3.14291 3.36181 3.48156 2.54424 4.08435 1.94144ZM16.4007 8.35656L16.6234 8.57926C16.873 8.74216 17.0865 8.9557 17.2494 9.20528L21.2221 13.178C21.6051 13.561 21.7197 14.1371 21.5124 14.6375C21.3051 15.138 20.8168 15.4643 20.2751 15.4643H17.5965V23.2321C17.5965 24.4156 16.6371 25.375 15.4537 25.375C14.2702 25.375 13.3108 24.4156 13.3108 23.2321V15.4643H10.6322C10.0905 15.4643 9.60216 15.138 9.39488 14.6375C9.18758 14.1371 9.30216 13.561 9.6852 13.178L13.658 9.20519C13.8208 8.95568 14.0343 8.74221 14.2839 8.57931L14.5066 8.35656C14.7578 8.10539 15.0984 7.96429 15.4536 7.96429C15.8088 7.96429 16.1495 8.10539 16.4007 8.35656Z" fill="white"/>
</svg>
