<svg width="33" height="32" viewBox="0 0 33 32" fill="none" xmlns="http://www.w3.org/2000/svg">
<g clip-path="url(#clip0_1215_2140)">
<g clip-path="url(#clip1_1215_2140)">
<path fill-rule="evenodd" clip-rule="evenodd" d="M1.50005 5.82143C1.50005 3.15863 3.65867 1 6.32147 1H22.3929C23.2805 1 24 1.71954 24 2.60714C24 3.49474 23.2805 4.21429 22.3929 4.21429H6.32147C5.43388 4.21429 4.71433 4.93384 4.71433 5.82143V21.8929C4.71433 22.7804 3.99478 23.5 3.10719 23.5C2.21959 23.5 1.50005 22.7804 1.50005 21.8929V5.82143ZM7.92862 10.6429C7.92862 8.86765 9.3677 7.42857 11.1429 7.42857H28.2858C30.0609 7.42857 31.5 8.86765 31.5 10.6429V27.7857C31.5 29.5609 30.0609 31 28.2858 31H11.1429C9.3677 31 7.92862 29.5609 7.92862 27.7857V10.6429ZM14.6407 21.3068V22.7273H20.1577V25H21.8339V22.7273H23.3736V21.2386H21.8339V13.3636H20.7884H20.1691H19.6691L14.6407 21.3068ZM20.1691 15.4545H20.0782L16.4816 21.1477V21.2386H20.1691V15.4545Z" fill="white"/>
</g>
</g>
<defs>
<clipPath id="clip0_1215_2140">
<rect width="30" height="30" fill="white" transform="translate(1.50005 1)"/>
</clipPath>
<clipPath id="clip1_1215_2140">
<rect width="30" height="30" fill="white" transform="translate(1.50005 1)"/>
</clipPath>
</defs>
</svg>
