<svg width="32" height="32" viewBox="0 0 32 32" fill="none" xmlns="http://www.w3.org/2000/svg">
<g clip-path="url(#clip0_1215_2474)">
<path fill-rule="evenodd" clip-rule="evenodd" d="M14.95 2.07136C14.9502 1.78604 15.0637 1.51259 15.2652 1.31152C15.4667 1.11046 15.7397 0.99835 16.0237 1.00002C16.4504 1.00252 16.8674 1.12853 17.2247 1.36294C17.5782 1.5948 17.8584 1.92302 18.0327 2.30901L21.4229 9.50598C21.4284 9.51746 21.4336 9.52904 21.4386 9.5407C21.4415 9.54755 21.4461 9.55349 21.452 9.55797C21.4579 9.56245 21.4649 9.56532 21.4722 9.56629L21.4856 9.56813L29.0432 10.6619L29.0606 10.6646C29.4882 10.7337 29.8879 10.9224 30.2137 11.2092C30.5395 11.4959 30.7783 11.869 30.9028 12.2858C31.0273 12.7026 31.0324 13.1462 30.9175 13.5657C30.8056 13.9741 30.5846 14.3436 30.2786 14.6342L24.831 20.2563L24.8254 20.262C24.8066 20.2812 24.7925 20.3046 24.7843 20.3303C24.7764 20.355 24.7742 20.3811 24.7778 20.4067L26.1418 28.3278L26.1423 28.3311C26.215 28.7443 26.1724 29.1698 26.0192 29.5604C25.8656 29.9518 25.6068 30.2928 25.2716 30.5452C24.9365 30.7978 24.5382 30.9518 24.121 30.9904C23.7038 31.029 23.2842 30.9503 22.9089 30.7635C22.8968 30.7575 22.8848 30.7513 22.873 30.7449L16.0458 27.0155C16.02 27.0018 15.9902 26.9937 15.9611 26.9926C15.3851 26.9737 14.9281 26.4989 14.9286 25.92L14.95 2.07136Z" fill="white"/>
<path fill-rule="evenodd" clip-rule="evenodd" d="M17.0501 2.07136C17.0499 1.78604 16.9364 1.51259 16.7349 1.31152C16.5334 1.11046 16.2604 0.99835 15.9764 1.00002C15.5497 1.00252 15.1327 1.12853 14.7753 1.36294C14.4219 1.5948 14.1417 1.92302 13.9674 2.30901L10.5772 9.50598C10.5717 9.51746 10.5665 9.52904 10.5615 9.5407C10.5586 9.54755 10.554 9.55349 10.5481 9.55797C10.5422 9.56245 10.5352 9.56532 10.5279 9.56629L10.5145 9.56813L2.95687 10.6619L2.93953 10.6646C2.51186 10.7337 2.11223 10.9224 1.78641 11.2092C1.46058 11.4959 1.22176 11.869 1.09729 12.2858C0.972816 12.7026 0.967739 13.1462 1.08263 13.5657C1.19445 13.9741 1.41551 14.3436 1.72148 14.6342L7.16909 20.2563L7.17464 20.262C7.19351 20.2812 7.20763 20.3046 7.2158 20.3303C7.22366 20.355 7.22586 20.3811 7.22225 20.4067L5.85834 28.3278L5.85778 28.3311C5.78506 28.7443 5.82766 29.1698 5.98088 29.5604C6.13451 29.9518 6.3933 30.2928 6.72844 30.5452C7.06358 30.7978 7.46192 30.9518 7.87908 30.9904C8.29624 31.029 8.71586 30.9503 9.09122 30.7635C9.10329 30.7575 9.11526 30.7513 9.12711 30.7449L15.9543 27.0155C15.9801 27.0018 16.0099 26.9937 16.039 26.9926C16.615 26.9737 17.072 26.4989 17.0715 25.92L17.0501 2.07136Z" fill="white"/>
</g>
<defs>
<clipPath id="clip0_1215_2474">
<rect width="30" height="30" fill="white" transform="translate(1.00005 1)"/>
</clipPath>
</defs>
</svg>
