<svg width="32" height="32" viewBox="0 0 32 32" fill="none" xmlns="http://www.w3.org/2000/svg">
<g clip-path="url(#clip0_1215_4272)">
<path fill-rule="evenodd" clip-rule="evenodd" d="M16 31C24.2843 31 31 24.2843 31 16C31 7.71574 24.2843 1 16 1C7.71578 1 1.00005 7.71574 1.00005 16C1.00005 24.2843 7.71578 31 16 31ZM17.3393 10.6429C17.3393 9.90319 16.7397 9.30357 16 9.30357C15.2604 9.30357 14.6608 9.90319 14.6608 10.6429V16C14.6608 16.3133 14.7706 16.6167 14.9712 16.8574L20.3283 23.2859C20.8018 23.8542 21.6463 23.9309 22.2146 23.4574C22.7828 22.984 22.8595 22.1394 22.3861 21.5712L17.3393 15.5151V10.6429Z" fill="white"/>
</g>
<defs>
<clipPath id="clip0_1215_4272">
<rect width="30" height="30" fill="white" transform="translate(1.00005 1)"/>
</clipPath>
</defs>
</svg>
