<svg width="33" height="32" viewBox="0 0 33 32" fill="none" xmlns="http://www.w3.org/2000/svg">
<g clip-path="url(#clip0_1215_6734)">
<path fill-rule="evenodd" clip-rule="evenodd" d="M19.1786 1.53564C18.291 1.53564 17.5715 2.25519 17.5715 3.14279C17.5715 4.03038 18.291 4.74993 19.1786 4.74993H29.8929C30.7805 4.74993 31.5 4.03038 31.5 3.14279C31.5 2.25519 30.7805 1.53564 29.8929 1.53564H19.1786ZM1.50005 4.21317C1.50005 3.0297 2.45943 2.07031 3.6429 2.07031H12.2143C13.3978 2.07031 14.3572 3.0297 14.3572 4.21317V12.7856C14.3572 13.9691 13.3978 14.9285 12.2143 14.9285H3.6429C2.45943 14.9285 1.50005 13.9691 1.50005 12.7856V4.21317ZM1.50005 19.2132C1.50005 18.0297 2.45943 17.0703 3.6429 17.0703H12.2143C13.3978 17.0703 14.3572 18.0297 14.3572 19.2132V27.7856C14.3572 28.9691 13.3978 29.9285 12.2143 29.9285H3.6429C2.45943 29.9285 1.50005 28.9691 1.50005 27.7856V19.2132ZM17.5715 9.57136C17.5715 8.68377 18.291 7.96422 19.1786 7.96422H29.8929C30.7805 7.96422 31.5 8.68377 31.5 9.57136C31.5 10.459 30.7805 11.1785 29.8929 11.1785H19.1786C18.291 11.1785 17.5715 10.459 17.5715 9.57136ZM19.1786 14.3928C18.291 14.3928 17.5715 15.1123 17.5715 15.9999C17.5715 16.8875 18.291 17.6071 19.1786 17.6071H29.8929C30.7805 17.6071 31.5 16.8875 31.5 15.9999C31.5 15.1123 30.7805 14.3928 29.8929 14.3928H19.1786ZM17.5715 22.4285C17.5715 21.5409 18.291 20.8214 19.1786 20.8214H29.8929C30.7805 20.8214 31.5 21.5409 31.5 22.4285C31.5 23.3161 30.7805 24.0356 29.8929 24.0356H19.1786C18.291 24.0356 17.5715 23.3161 17.5715 22.4285ZM19.1786 27.2499C18.291 27.2499 17.5715 27.9695 17.5715 28.8571C17.5715 29.7446 18.291 30.4642 19.1786 30.4642H29.8929C30.7805 30.4642 31.5 29.7446 31.5 28.8571C31.5 27.9695 30.7805 27.2499 29.8929 27.2499H19.1786Z" fill="white"/>
</g>
<defs>
<clipPath id="clip0_1215_6734">
<rect width="30" height="30" fill="white" transform="translate(1.50005 1)"/>
</clipPath>
</defs>
</svg>
