<svg width="32" height="32" viewBox="0 0 32 32" fill="none" xmlns="http://www.w3.org/2000/svg">
<g clip-path="url(#clip0_1215_4102)">
<g clip-path="url(#clip1_1215_4102)">
<path fill-rule="evenodd" clip-rule="evenodd" d="M1.00005 6.893C1.00005 5.11779 2.43913 3.67871 4.21433 3.67871H27.7858C29.5609 3.67871 31 5.11779 31 6.893V7.62575L16.8216 17.0797C16.6216 17.2083 16.3314 17.3001 16 17.3001C15.6687 17.3001 15.3784 17.2083 15.1785 17.0797L1.00005 7.62577V6.893ZM1.00005 10.8452V25.1073C1.00005 26.8824 2.43913 28.3216 4.21433 28.3216H27.7858C29.5609 28.3216 31 26.8824 31 25.1073V10.8452L18.3002 19.3132L18.2878 19.3215C17.6136 19.7603 16.8039 19.9786 16 19.9786C15.1962 19.9786 14.3865 19.7603 13.7123 19.3214L13.6998 19.3133L1.00005 10.8452Z" fill="white"/>
</g>
</g>
<defs>
<clipPath id="clip0_1215_4102">
<rect width="30" height="30" fill="white" transform="translate(1.00005 1)"/>
</clipPath>
<clipPath id="clip1_1215_4102">
<rect width="30" height="30" fill="white" transform="translate(1.00005 1)"/>
</clipPath>
</defs>
</svg>
