<svg width="32" height="32" viewBox="0 0 32 32" fill="none" xmlns="http://www.w3.org/2000/svg">
<g clip-path="url(#clip0_1215_4232)">
<path fill-rule="evenodd" clip-rule="evenodd" d="M16 31C24.2843 31 31 24.2843 31 16C31 7.71573 24.2843 1 16 1C7.71577 1 1.00005 7.71573 1.00005 16C1.00005 24.2843 7.71577 31 16 31ZM24.2072 12.2071C24.5977 11.8166 24.5977 11.1834 24.2072 10.7929C23.8166 10.4024 23.1835 10.4024 22.7929 10.7929L13.75 19.8358L9.20715 15.2929C8.81663 14.9024 8.18346 14.9024 7.79294 15.2929C7.40241 15.6834 7.40241 16.3166 7.79294 16.7071L13.0429 21.9571C13.4335 22.3476 14.0666 22.3476 14.4572 21.9571L24.2072 12.2071Z" fill="white"/>
</g>
<defs>
<clipPath id="clip0_1215_4232">
<rect width="30" height="30" fill="white" transform="translate(1.00005 1)"/>
</clipPath>
</defs>
</svg>
