<svg width="32" height="32" viewBox="0 0 32 32" fill="none" xmlns="http://www.w3.org/2000/svg">
<g clip-path="url(#clip0_1215_4123)">
<path fill-rule="evenodd" clip-rule="evenodd" d="M20.8215 1.53564C19.9339 1.53564 19.2143 2.25519 19.2143 3.14279C19.2143 4.03038 19.9339 4.74993 20.8215 4.74993H29.3929C30.2805 4.74993 31 4.03038 31 3.14279C31 2.25519 30.2805 1.53564 29.3929 1.53564H20.8215ZM3.1429 2.07031C1.95943 2.07031 1.00005 3.0297 1.00005 4.21317V14.9275C1.00005 16.1109 1.95943 17.0703 3.1429 17.0703H13.8572C15.0406 17.0703 16 16.1109 16 14.9275V4.21317C16 3.0297 15.0406 2.07031 13.8572 2.07031H3.1429ZM19.2143 9.57136C19.2143 8.68377 19.9339 7.96422 20.8215 7.96422H29.3929C30.2805 7.96422 31 8.68377 31 9.57136C31 10.459 30.2805 11.1785 29.3929 11.1785H20.8215C19.9339 11.1785 19.2143 10.459 19.2143 9.57136ZM20.8215 14.3928C19.9339 14.3928 19.2143 15.1123 19.2143 15.9999C19.2143 16.8875 19.9339 17.6071 20.8215 17.6071H29.3929C30.2805 17.6071 31 16.8875 31 15.9999C31 15.1123 30.2805 14.3928 29.3929 14.3928H20.8215ZM1.00005 22.4285C1.00005 21.5409 1.71959 20.8214 2.60719 20.8214H29.3929C30.2805 20.8214 31 21.5409 31 22.4285C31 23.3161 30.2805 24.0356 29.3929 24.0356H2.60719C1.71959 24.0356 1.00005 23.3161 1.00005 22.4285ZM2.60719 27.2499C1.71959 27.2499 1.00005 27.9695 1.00005 28.8571C1.00005 29.7446 1.71959 30.4642 2.60719 30.4642H29.3929C30.2805 30.4642 31 29.7446 31 28.8571C31 27.9695 30.2805 27.2499 29.3929 27.2499H2.60719Z" fill="white"/>
</g>
<defs>
<clipPath id="clip0_1215_4123">
<rect width="30" height="30" fill="white" transform="translate(1.00005 1)"/>
</clipPath>
</defs>
</svg>
